<mxfile host="app.diagrams.net" modified="2024-05-09T13:27:51.671Z" agent="Mozilla/5.0 (Windows NT 10.0; Win64; x64) AppleWebKit/537.36 (KHTML, like Gecko) Chrome/122.0.0.0 Safari/537.36" etag="CEAcSoHM-zKZbcyfSfuZ" version="24.3.1" type="github">
  <diagram id="C5RBs43oDa-KdzZeNtuy" name="Page-1">
    <mxGraphModel dx="4279" dy="2562" grid="1" gridSize="10" guides="1" tooltips="1" connect="1" arrows="1" fold="1" page="1" pageScale="1" pageWidth="827" pageHeight="1169" math="0" shadow="0">
      <root>
        <mxCell id="WIyWlLk6GJQsqaUBKTNV-0" />
        <mxCell id="WIyWlLk6GJQsqaUBKTNV-1" parent="WIyWlLk6GJQsqaUBKTNV-0" />
        <mxCell id="c3afByQmrDaTbbPtqfAJ-0" value="Publication" style="shape=folder;fontStyle=1;spacingTop=10;tabWidth=40;tabHeight=14;tabPosition=left;html=1;whiteSpace=wrap;" vertex="1" parent="WIyWlLk6GJQsqaUBKTNV-1">
          <mxGeometry x="-1250" y="-280" width="1030" height="680" as="geometry" />
        </mxCell>
        <mxCell id="c3afByQmrDaTbbPtqfAJ-1" value="Structure" style="shape=folder;fontStyle=1;spacingTop=10;tabWidth=40;tabHeight=14;tabPosition=left;html=1;whiteSpace=wrap;" vertex="1" parent="WIyWlLk6GJQsqaUBKTNV-1">
          <mxGeometry x="-210" y="-490" width="320" height="830" as="geometry" />
        </mxCell>
        <mxCell id="c3afByQmrDaTbbPtqfAJ-2" value="Book" style="swimlane;fontStyle=3;align=center;verticalAlign=top;childLayout=stackLayout;horizontal=1;startSize=26;horizontalStack=0;resizeParent=1;resizeParentMax=0;resizeLast=0;collapsible=1;marginBottom=0;whiteSpace=wrap;html=1;" vertex="1" parent="WIyWlLk6GJQsqaUBKTNV-1">
          <mxGeometry x="-820" y="-16" width="160" height="120" as="geometry" />
        </mxCell>
        <mxCell id="c3afByQmrDaTbbPtqfAJ-3" value="- chapter: int&lt;div&gt;- pagesNumber: int&lt;/div&gt;" style="text;strokeColor=none;fillColor=none;align=left;verticalAlign=top;spacingLeft=4;spacingRight=4;overflow=hidden;rotatable=0;points=[[0,0.5],[1,0.5]];portConstraint=eastwest;whiteSpace=wrap;html=1;" vertex="1" parent="c3afByQmrDaTbbPtqfAJ-2">
          <mxGeometry y="26" width="160" height="94" as="geometry" />
        </mxCell>
        <mxCell id="c3afByQmrDaTbbPtqfAJ-4" value="Newspaper" style="swimlane;fontStyle=3;align=center;verticalAlign=top;childLayout=stackLayout;horizontal=1;startSize=26;horizontalStack=0;resizeParent=1;resizeParentMax=0;resizeLast=0;collapsible=1;marginBottom=0;whiteSpace=wrap;html=1;" vertex="1" parent="WIyWlLk6GJQsqaUBKTNV-1">
          <mxGeometry x="-1220" y="-16" width="160" height="60" as="geometry" />
        </mxCell>
        <mxCell id="c3afByQmrDaTbbPtqfAJ-5" value="User" style="swimlane;fontStyle=3;align=center;verticalAlign=top;childLayout=stackLayout;horizontal=1;startSize=26;horizontalStack=0;resizeParent=1;resizeParentMax=0;resizeLast=0;collapsible=1;marginBottom=0;whiteSpace=wrap;html=1;" vertex="1" parent="WIyWlLk6GJQsqaUBKTNV-1">
          <mxGeometry x="450" y="-170" width="160" height="90" as="geometry" />
        </mxCell>
        <mxCell id="c3afByQmrDaTbbPtqfAJ-6" value="- id: String&lt;div&gt;- enabled: boolean&lt;/div&gt;" style="text;strokeColor=none;fillColor=none;align=left;verticalAlign=top;spacingLeft=4;spacingRight=4;overflow=hidden;rotatable=0;points=[[0,0.5],[1,0.5]];portConstraint=eastwest;whiteSpace=wrap;html=1;" vertex="1" parent="c3afByQmrDaTbbPtqfAJ-5">
          <mxGeometry y="26" width="160" height="64" as="geometry" />
        </mxCell>
        <mxCell id="c3afByQmrDaTbbPtqfAJ-7" value="Person" style="swimlane;fontStyle=3;align=center;verticalAlign=top;childLayout=stackLayout;horizontal=1;startSize=26;horizontalStack=0;resizeParent=1;resizeLast=0;collapsible=1;marginBottom=0;rounded=0;shadow=0;strokeWidth=1;" vertex="1" parent="WIyWlLk6GJQsqaUBKTNV-1">
          <mxGeometry x="330" y="-340" width="160" height="120" as="geometry">
            <mxRectangle x="230" y="140" width="160" height="26" as="alternateBounds" />
          </mxGeometry>
        </mxCell>
        <mxCell id="c3afByQmrDaTbbPtqfAJ-8" value="# name: String&#xa;# lastName: String&#xa;# dni: String&#xa;# direction: StringÂ &#xa;" style="text;align=left;verticalAlign=top;spacingLeft=4;spacingRight=4;overflow=hidden;rotatable=0;points=[[0,0.5],[1,0.5]];portConstraint=eastwest;" vertex="1" parent="c3afByQmrDaTbbPtqfAJ-7">
          <mxGeometry y="26" width="160" height="94" as="geometry" />
        </mxCell>
        <mxCell id="c3afByQmrDaTbbPtqfAJ-9" value="&lt;&lt;enumeration&gt;&gt;&#xa;Category" style="swimlane;fontStyle=3;align=center;verticalAlign=top;childLayout=stackLayout;horizontal=1;startSize=40;horizontalStack=0;resizeParent=1;resizeLast=0;collapsible=1;marginBottom=0;rounded=0;shadow=0;strokeWidth=1;" vertex="1" parent="WIyWlLk6GJQsqaUBKTNV-1">
          <mxGeometry x="-1030" y="184" width="160" height="110" as="geometry">
            <mxRectangle x="340" y="380" width="170" height="26" as="alternateBounds" />
          </mxGeometry>
        </mxCell>
        <mxCell id="c3afByQmrDaTbbPtqfAJ-10" value="- MEDICINE&#xa;- TECHNOLOGICAL&#xa;- ACADEMIC" style="text;align=left;verticalAlign=top;spacingLeft=4;spacingRight=4;overflow=hidden;rotatable=0;points=[[0,0.5],[1,0.5]];portConstraint=eastwest;" vertex="1" parent="c3afByQmrDaTbbPtqfAJ-9">
          <mxGeometry y="40" width="160" height="70" as="geometry" />
        </mxCell>
        <mxCell id="c3afByQmrDaTbbPtqfAJ-11" value="Record" style="swimlane;fontStyle=3;align=center;verticalAlign=top;childLayout=stackLayout;horizontal=1;startSize=26;horizontalStack=0;resizeParent=1;resizeLast=0;collapsible=1;marginBottom=0;rounded=0;shadow=0;strokeWidth=1;" vertex="1" parent="WIyWlLk6GJQsqaUBKTNV-1">
          <mxGeometry x="770" y="-170" width="190" height="60" as="geometry">
            <mxRectangle x="340" y="380" width="170" height="26" as="alternateBounds" />
          </mxGeometry>
        </mxCell>
        <mxCell id="c3afByQmrDaTbbPtqfAJ-12" value="- numberBorrowedBook: int" style="text;align=left;verticalAlign=top;spacingLeft=4;spacingRight=4;overflow=hidden;rotatable=0;points=[[0,0.5],[1,0.5]];portConstraint=eastwest;" vertex="1" parent="c3afByQmrDaTbbPtqfAJ-11">
          <mxGeometry y="26" width="190" height="34" as="geometry" />
        </mxCell>
        <mxCell id="c3afByQmrDaTbbPtqfAJ-13" value="Author" style="swimlane;fontStyle=3;align=center;verticalAlign=top;childLayout=stackLayout;horizontal=1;startSize=26;horizontalStack=0;resizeParent=1;resizeParentMax=0;resizeLast=0;collapsible=1;marginBottom=0;whiteSpace=wrap;html=1;" vertex="1" parent="WIyWlLk6GJQsqaUBKTNV-1">
          <mxGeometry x="-1140" y="-166" width="160" height="90" as="geometry" />
        </mxCell>
        <mxCell id="c3afByQmrDaTbbPtqfAJ-14" value="- name: String&lt;div&gt;- nationality: String&lt;/div&gt;&lt;div&gt;- birthDate: Date&lt;/div&gt;" style="text;strokeColor=none;fillColor=none;align=left;verticalAlign=top;spacingLeft=4;spacingRight=4;overflow=hidden;rotatable=0;points=[[0,0.5],[1,0.5]];portConstraint=eastwest;whiteSpace=wrap;html=1;" vertex="1" parent="c3afByQmrDaTbbPtqfAJ-13">
          <mxGeometry y="26" width="160" height="64" as="geometry" />
        </mxCell>
        <mxCell id="c3afByQmrDaTbbPtqfAJ-15" value="Magazine" style="swimlane;fontStyle=3;align=center;verticalAlign=top;childLayout=stackLayout;horizontal=1;startSize=26;horizontalStack=0;resizeParent=1;resizeParentMax=0;resizeLast=0;collapsible=1;marginBottom=0;whiteSpace=wrap;html=1;" vertex="1" parent="WIyWlLk6GJQsqaUBKTNV-1">
          <mxGeometry x="-1030" y="-16" width="160" height="56" as="geometry" />
        </mxCell>
        <mxCell id="c3afByQmrDaTbbPtqfAJ-16" value="- copyNumber: int" style="text;html=1;align=center;verticalAlign=middle;resizable=0;points=[];autosize=1;strokeColor=none;fillColor=none;" vertex="1" parent="c3afByQmrDaTbbPtqfAJ-15">
          <mxGeometry y="26" width="160" height="30" as="geometry" />
        </mxCell>
        <mxCell id="c3afByQmrDaTbbPtqfAJ-17" value="Librarian" style="swimlane;fontStyle=3;align=center;verticalAlign=top;childLayout=stackLayout;horizontal=1;startSize=26;horizontalStack=0;resizeParent=1;resizeParentMax=0;resizeLast=0;collapsible=1;marginBottom=0;whiteSpace=wrap;html=1;" vertex="1" parent="WIyWlLk6GJQsqaUBKTNV-1">
          <mxGeometry x="185" y="-170" width="160" height="52" as="geometry" />
        </mxCell>
        <mxCell id="c3afByQmrDaTbbPtqfAJ-18" value="- id: String" style="text;strokeColor=none;fillColor=none;align=left;verticalAlign=top;spacingLeft=4;spacingRight=4;overflow=hidden;rotatable=0;points=[[0,0.5],[1,0.5]];portConstraint=eastwest;whiteSpace=wrap;html=1;" vertex="1" parent="c3afByQmrDaTbbPtqfAJ-17">
          <mxGeometry y="26" width="160" height="26" as="geometry" />
        </mxCell>
        <mxCell id="c3afByQmrDaTbbPtqfAJ-19" value="" style="endArrow=block;endSize=16;endFill=0;html=1;rounded=0;entryX=0.864;entryY=1.021;entryDx=0;entryDy=0;entryPerimeter=0;exitX=0.111;exitY=-0.014;exitDx=0;exitDy=0;exitPerimeter=0;" edge="1" parent="WIyWlLk6GJQsqaUBKTNV-1" source="c3afByQmrDaTbbPtqfAJ-5" target="c3afByQmrDaTbbPtqfAJ-8">
          <mxGeometry width="160" relative="1" as="geometry">
            <mxPoint x="390" y="-180" as="sourcePoint" />
            <mxPoint x="550" y="-180" as="targetPoint" />
          </mxGeometry>
        </mxCell>
        <mxCell id="c3afByQmrDaTbbPtqfAJ-20" value="" style="endArrow=block;endSize=16;endFill=0;html=1;rounded=0;entryX=0.864;entryY=1.021;entryDx=0;entryDy=0;entryPerimeter=0;exitX=0.968;exitY=0.013;exitDx=0;exitDy=0;exitPerimeter=0;" edge="1" parent="WIyWlLk6GJQsqaUBKTNV-1" source="c3afByQmrDaTbbPtqfAJ-17">
          <mxGeometry width="160" relative="1" as="geometry">
            <mxPoint x="340" y="-173" as="sourcePoint" />
            <mxPoint x="340" y="-220" as="targetPoint" />
          </mxGeometry>
        </mxCell>
        <mxCell id="c3afByQmrDaTbbPtqfAJ-21" value="" style="endArrow=none;html=1;edgeStyle=orthogonalEdgeStyle;rounded=0;" edge="1" parent="WIyWlLk6GJQsqaUBKTNV-1">
          <mxGeometry relative="1" as="geometry">
            <mxPoint x="610" y="-160" as="sourcePoint" />
            <mxPoint x="770" y="-160" as="targetPoint" />
          </mxGeometry>
        </mxCell>
        <mxCell id="c3afByQmrDaTbbPtqfAJ-22" value="1 User" style="edgeLabel;resizable=0;html=1;align=left;verticalAlign=bottom;" connectable="0" vertex="1" parent="c3afByQmrDaTbbPtqfAJ-21">
          <mxGeometry x="-1" relative="1" as="geometry">
            <mxPoint as="offset" />
          </mxGeometry>
        </mxCell>
        <mxCell id="c3afByQmrDaTbbPtqfAJ-23" value="1 Record" style="edgeLabel;resizable=0;html=1;align=right;verticalAlign=bottom;" connectable="0" vertex="1" parent="c3afByQmrDaTbbPtqfAJ-21">
          <mxGeometry x="1" relative="1" as="geometry">
            <mxPoint y="20" as="offset" />
          </mxGeometry>
        </mxCell>
        <mxCell id="c3afByQmrDaTbbPtqfAJ-24" value="" style="endArrow=none;html=1;edgeStyle=orthogonalEdgeStyle;rounded=0;exitX=1.017;exitY=0.256;exitDx=0;exitDy=0;exitPerimeter=0;" edge="1" parent="WIyWlLk6GJQsqaUBKTNV-1" source="c3afByQmrDaTbbPtqfAJ-30">
          <mxGeometry relative="1" as="geometry">
            <mxPoint x="19.840000000000146" y="-159.79999999999995" as="sourcePoint" />
            <mxPoint x="185" y="-160" as="targetPoint" />
          </mxGeometry>
        </mxCell>
        <mxCell id="c3afByQmrDaTbbPtqfAJ-25" value="1 Library" style="edgeLabel;resizable=0;html=1;align=left;verticalAlign=bottom;" connectable="0" vertex="1" parent="c3afByQmrDaTbbPtqfAJ-24">
          <mxGeometry x="-1" relative="1" as="geometry" />
        </mxCell>
        <mxCell id="c3afByQmrDaTbbPtqfAJ-26" value="1...* LibrarianList" style="edgeLabel;resizable=0;html=1;align=right;verticalAlign=bottom;" connectable="0" vertex="1" parent="c3afByQmrDaTbbPtqfAJ-24">
          <mxGeometry x="1" relative="1" as="geometry">
            <mxPoint x="85" y="-20" as="offset" />
          </mxGeometry>
        </mxCell>
        <mxCell id="c3afByQmrDaTbbPtqfAJ-27" value="Library" style="swimlane;fontStyle=3;align=center;verticalAlign=top;childLayout=stackLayout;horizontal=1;startSize=26;horizontalStack=0;resizeParent=1;resizeParentMax=0;resizeLast=0;collapsible=1;marginBottom=0;whiteSpace=wrap;html=1;" vertex="1" parent="WIyWlLk6GJQsqaUBKTNV-1">
          <mxGeometry x="-140" y="-390" width="160" height="180" as="geometry" />
        </mxCell>
        <mxCell id="c3afByQmrDaTbbPtqfAJ-28" value="- name: String&lt;div&gt;- direction: String&lt;/div&gt;" style="text;strokeColor=none;fillColor=none;align=left;verticalAlign=top;spacingLeft=4;spacingRight=4;overflow=hidden;rotatable=0;points=[[0,0.5],[1,0.5]];portConstraint=eastwest;whiteSpace=wrap;html=1;" vertex="1" parent="c3afByQmrDaTbbPtqfAJ-27">
          <mxGeometry y="26" width="160" height="64" as="geometry" />
        </mxCell>
        <mxCell id="c3afByQmrDaTbbPtqfAJ-29" value="" style="line;strokeWidth=1;fillColor=none;align=left;verticalAlign=middle;spacingTop=-1;spacingLeft=3;spacingRight=3;rotatable=0;labelPosition=right;points=[];portConstraint=eastwest;strokeColor=inherit;" vertex="1" parent="c3afByQmrDaTbbPtqfAJ-27">
          <mxGeometry y="90" width="160" height="8" as="geometry" />
        </mxCell>
        <mxCell id="c3afByQmrDaTbbPtqfAJ-30" value="+ addSection(): void&lt;div&gt;+ quitSection(): void&lt;/div&gt;&lt;div&gt;&lt;br&gt;&lt;/div&gt;" style="text;strokeColor=none;fillColor=none;align=left;verticalAlign=top;spacingLeft=4;spacingRight=4;overflow=hidden;rotatable=0;points=[[0,0.5],[1,0.5]];portConstraint=eastwest;whiteSpace=wrap;html=1;" vertex="1" parent="c3afByQmrDaTbbPtqfAJ-27">
          <mxGeometry y="98" width="160" height="82" as="geometry" />
        </mxCell>
        <mxCell id="c3afByQmrDaTbbPtqfAJ-31" value="Section" style="swimlane;fontStyle=3;align=center;verticalAlign=top;childLayout=stackLayout;horizontal=1;startSize=26;horizontalStack=0;resizeParent=1;resizeParentMax=0;resizeLast=0;collapsible=1;marginBottom=0;whiteSpace=wrap;html=1;" vertex="1" parent="WIyWlLk6GJQsqaUBKTNV-1">
          <mxGeometry x="-140" y="70" width="160" height="90" as="geometry" />
        </mxCell>
        <mxCell id="c3afByQmrDaTbbPtqfAJ-32" value="- name: String" style="text;strokeColor=none;fillColor=none;align=left;verticalAlign=top;spacingLeft=4;spacingRight=4;overflow=hidden;rotatable=0;points=[[0,0.5],[1,0.5]];portConstraint=eastwest;whiteSpace=wrap;html=1;" vertex="1" parent="c3afByQmrDaTbbPtqfAJ-31">
          <mxGeometry y="26" width="160" height="64" as="geometry" />
        </mxCell>
        <mxCell id="c3afByQmrDaTbbPtqfAJ-33" value="Loan" style="swimlane;fontStyle=3;align=center;verticalAlign=top;childLayout=stackLayout;horizontal=1;startSize=26;horizontalStack=0;resizeParent=1;resizeParentMax=0;resizeLast=0;collapsible=1;marginBottom=0;whiteSpace=wrap;html=1;" vertex="1" parent="WIyWlLk6GJQsqaUBKTNV-1">
          <mxGeometry x="785" y="-20" width="160" height="90" as="geometry" />
        </mxCell>
        <mxCell id="c3afByQmrDaTbbPtqfAJ-34" value="- loanDate: Date&lt;div&gt;- returnDate: Date&lt;/div&gt;" style="text;strokeColor=none;fillColor=none;align=left;verticalAlign=top;spacingLeft=4;spacingRight=4;overflow=hidden;rotatable=0;points=[[0,0.5],[1,0.5]];portConstraint=eastwest;whiteSpace=wrap;html=1;" vertex="1" parent="c3afByQmrDaTbbPtqfAJ-33">
          <mxGeometry y="26" width="160" height="64" as="geometry" />
        </mxCell>
        <mxCell id="c3afByQmrDaTbbPtqfAJ-35" value="Rack" style="swimlane;fontStyle=3;align=center;verticalAlign=top;childLayout=stackLayout;horizontal=1;startSize=26;horizontalStack=0;resizeParent=1;resizeParentMax=0;resizeLast=0;collapsible=1;marginBottom=0;whiteSpace=wrap;html=1;" vertex="1" parent="WIyWlLk6GJQsqaUBKTNV-1">
          <mxGeometry x="-140" y="224" width="160" height="90" as="geometry" />
        </mxCell>
        <mxCell id="c3afByQmrDaTbbPtqfAJ-36" value="- number: int" style="text;strokeColor=none;fillColor=none;align=left;verticalAlign=top;spacingLeft=4;spacingRight=4;overflow=hidden;rotatable=0;points=[[0,0.5],[1,0.5]];portConstraint=eastwest;whiteSpace=wrap;html=1;" vertex="1" parent="c3afByQmrDaTbbPtqfAJ-35">
          <mxGeometry y="26" width="160" height="64" as="geometry" />
        </mxCell>
        <mxCell id="c3afByQmrDaTbbPtqfAJ-37" value="Publication" style="swimlane;fontStyle=3;align=center;verticalAlign=top;childLayout=stackLayout;horizontal=1;startSize=26;horizontalStack=0;resizeParent=1;resizeParentMax=0;resizeLast=0;collapsible=1;marginBottom=0;whiteSpace=wrap;html=1;" vertex="1" parent="WIyWlLk6GJQsqaUBKTNV-1">
          <mxGeometry x="-820" y="-170" width="160" height="90" as="geometry" />
        </mxCell>
        <mxCell id="c3afByQmrDaTbbPtqfAJ-38" value="# title: String&lt;div&gt;# releaseDate: Date&lt;/div&gt;&lt;div&gt;# editorial: String&lt;/div&gt;" style="text;strokeColor=none;fillColor=none;align=left;verticalAlign=top;spacingLeft=4;spacingRight=4;overflow=hidden;rotatable=0;points=[[0,0.5],[1,0.5]];portConstraint=eastwest;whiteSpace=wrap;html=1;" vertex="1" parent="c3afByQmrDaTbbPtqfAJ-37">
          <mxGeometry y="26" width="160" height="64" as="geometry" />
        </mxCell>
        <mxCell id="c3afByQmrDaTbbPtqfAJ-39" value="&lt;&lt;enumeration&gt;&gt;&#xa;Genre" style="swimlane;fontStyle=3;align=center;verticalAlign=top;childLayout=stackLayout;horizontal=1;startSize=40;horizontalStack=0;resizeParent=1;resizeLast=0;collapsible=1;marginBottom=0;rounded=0;shadow=0;strokeWidth=1;" vertex="1" parent="WIyWlLk6GJQsqaUBKTNV-1">
          <mxGeometry x="-820" y="184" width="160" height="110" as="geometry">
            <mxRectangle x="340" y="380" width="170" height="26" as="alternateBounds" />
          </mxGeometry>
        </mxCell>
        <mxCell id="c3afByQmrDaTbbPtqfAJ-40" value="- LITERATURE&#xa;- ACADEMIC&#xa;- ENCYCLOPEDIA&#xa;- SCIENTIFIC" style="text;align=left;verticalAlign=top;spacingLeft=4;spacingRight=4;overflow=hidden;rotatable=0;points=[[0,0.5],[1,0.5]];portConstraint=eastwest;" vertex="1" parent="c3afByQmrDaTbbPtqfAJ-39">
          <mxGeometry y="40" width="160" height="70" as="geometry" />
        </mxCell>
        <mxCell id="c3afByQmrDaTbbPtqfAJ-41" value="" style="endArrow=none;html=1;edgeStyle=orthogonalEdgeStyle;rounded=0;" edge="1" parent="WIyWlLk6GJQsqaUBKTNV-1">
          <mxGeometry relative="1" as="geometry">
            <mxPoint x="-980" y="-156" as="sourcePoint" />
            <mxPoint x="-820" y="-156" as="targetPoint" />
          </mxGeometry>
        </mxCell>
        <mxCell id="c3afByQmrDaTbbPtqfAJ-42" value="1...* AuthorList" style="edgeLabel;resizable=0;html=1;align=left;verticalAlign=bottom;" connectable="0" vertex="1" parent="c3afByQmrDaTbbPtqfAJ-41">
          <mxGeometry x="-1" relative="1" as="geometry" />
        </mxCell>
        <mxCell id="c3afByQmrDaTbbPtqfAJ-43" value="1...* Publication" style="edgeLabel;resizable=0;html=1;align=right;verticalAlign=bottom;" connectable="0" vertex="1" parent="c3afByQmrDaTbbPtqfAJ-41">
          <mxGeometry x="1" relative="1" as="geometry">
            <mxPoint y="20" as="offset" />
          </mxGeometry>
        </mxCell>
        <mxCell id="c3afByQmrDaTbbPtqfAJ-44" value="" style="endArrow=none;html=1;edgeStyle=orthogonalEdgeStyle;rounded=0;exitX=1.012;exitY=0.666;exitDx=0;exitDy=0;exitPerimeter=0;entryX=-0.005;entryY=0.691;entryDx=0;entryDy=0;entryPerimeter=0;" edge="1" parent="WIyWlLk6GJQsqaUBKTNV-1" source="c3afByQmrDaTbbPtqfAJ-30" target="c3afByQmrDaTbbPtqfAJ-6">
          <mxGeometry relative="1" as="geometry">
            <mxPoint x="19.840000000000146" y="-59.799999999999955" as="sourcePoint" />
            <mxPoint x="480" y="-80" as="targetPoint" />
            <Array as="points">
              <mxPoint x="70" y="-237" />
              <mxPoint x="70" y="-100" />
            </Array>
          </mxGeometry>
        </mxCell>
        <mxCell id="c3afByQmrDaTbbPtqfAJ-45" value="1...* LibraryList" style="edgeLabel;resizable=0;html=1;align=left;verticalAlign=bottom;" connectable="0" vertex="1" parent="c3afByQmrDaTbbPtqfAJ-44">
          <mxGeometry x="-1" relative="1" as="geometry" />
        </mxCell>
        <mxCell id="c3afByQmrDaTbbPtqfAJ-46" value="1...* UserList" style="edgeLabel;resizable=0;html=1;align=right;verticalAlign=bottom;" connectable="0" vertex="1" parent="c3afByQmrDaTbbPtqfAJ-44">
          <mxGeometry x="1" relative="1" as="geometry">
            <mxPoint y="20" as="offset" />
          </mxGeometry>
        </mxCell>
        <mxCell id="c3afByQmrDaTbbPtqfAJ-47" value="afiliation" style="edgeLabel;html=1;align=center;verticalAlign=middle;resizable=0;points=[];" vertex="1" connectable="0" parent="c3afByQmrDaTbbPtqfAJ-44">
          <mxGeometry x="0.0159" y="4" relative="1" as="geometry">
            <mxPoint as="offset" />
          </mxGeometry>
        </mxCell>
        <mxCell id="c3afByQmrDaTbbPtqfAJ-48" value="Copy" style="swimlane;fontStyle=3;align=center;verticalAlign=top;childLayout=stackLayout;horizontal=1;startSize=26;horizontalStack=0;resizeParent=1;resizeParentMax=0;resizeLast=0;collapsible=1;marginBottom=0;whiteSpace=wrap;html=1;" vertex="1" parent="WIyWlLk6GJQsqaUBKTNV-1">
          <mxGeometry x="-500" y="-16" width="160" height="90" as="geometry" />
        </mxCell>
        <mxCell id="c3afByQmrDaTbbPtqfAJ-49" value="- number: int&lt;div&gt;- borrowed: boolean&lt;/div&gt;&lt;div&gt;- loanable: boolean&lt;/div&gt;" style="text;strokeColor=none;fillColor=none;align=left;verticalAlign=top;spacingLeft=4;spacingRight=4;overflow=hidden;rotatable=0;points=[[0,0.5],[1,0.5]];portConstraint=eastwest;whiteSpace=wrap;html=1;" vertex="1" parent="c3afByQmrDaTbbPtqfAJ-48">
          <mxGeometry y="26" width="160" height="64" as="geometry" />
        </mxCell>
        <mxCell id="c3afByQmrDaTbbPtqfAJ-50" value="&lt;&lt;enumeration&gt;&gt;&#xa;State" style="swimlane;fontStyle=3;align=center;verticalAlign=top;childLayout=stackLayout;horizontal=1;startSize=40;horizontalStack=0;resizeParent=1;resizeLast=0;collapsible=1;marginBottom=0;rounded=0;shadow=0;strokeWidth=1;" vertex="1" parent="WIyWlLk6GJQsqaUBKTNV-1">
          <mxGeometry x="-500" y="184" width="160" height="110" as="geometry">
            <mxRectangle x="340" y="380" width="170" height="26" as="alternateBounds" />
          </mxGeometry>
        </mxCell>
        <mxCell id="c3afByQmrDaTbbPtqfAJ-51" value="- NEW&#xa;- REGULAR&#xa;- BAD" style="text;align=left;verticalAlign=top;spacingLeft=4;spacingRight=4;overflow=hidden;rotatable=0;points=[[0,0.5],[1,0.5]];portConstraint=eastwest;" vertex="1" parent="c3afByQmrDaTbbPtqfAJ-50">
          <mxGeometry y="40" width="160" height="70" as="geometry" />
        </mxCell>
        <mxCell id="c3afByQmrDaTbbPtqfAJ-52" value="" style="endArrow=none;html=1;edgeStyle=orthogonalEdgeStyle;rounded=0;exitX=0.5;exitY=1;exitDx=0;exitDy=0;entryX=0.5;entryY=0;entryDx=0;entryDy=0;" edge="1" parent="WIyWlLk6GJQsqaUBKTNV-1" source="c3afByQmrDaTbbPtqfAJ-15" target="c3afByQmrDaTbbPtqfAJ-9">
          <mxGeometry relative="1" as="geometry">
            <mxPoint x="-990" y="124" as="sourcePoint" />
            <mxPoint x="-830" y="124" as="targetPoint" />
          </mxGeometry>
        </mxCell>
        <mxCell id="c3afByQmrDaTbbPtqfAJ-53" value="" style="endArrow=block;endSize=16;endFill=0;html=1;rounded=0;exitX=0.5;exitY=0;exitDx=0;exitDy=0;entryX=0.492;entryY=1.01;entryDx=0;entryDy=0;entryPerimeter=0;" edge="1" parent="WIyWlLk6GJQsqaUBKTNV-1" source="c3afByQmrDaTbbPtqfAJ-15" target="c3afByQmrDaTbbPtqfAJ-38">
          <mxGeometry width="160" relative="1" as="geometry">
            <mxPoint x="-930" y="-46" as="sourcePoint" />
            <mxPoint x="-790" y="-76" as="targetPoint" />
            <Array as="points">
              <mxPoint x="-950" y="-46" />
              <mxPoint x="-740" y="-46" />
            </Array>
          </mxGeometry>
        </mxCell>
        <mxCell id="c3afByQmrDaTbbPtqfAJ-54" value="" style="endArrow=block;endSize=16;endFill=0;html=1;rounded=0;exitX=0.75;exitY=0;exitDx=0;exitDy=0;entryX=0.752;entryY=1.017;entryDx=0;entryDy=0;entryPerimeter=0;" edge="1" parent="WIyWlLk6GJQsqaUBKTNV-1" source="c3afByQmrDaTbbPtqfAJ-2" target="c3afByQmrDaTbbPtqfAJ-38">
          <mxGeometry width="160" relative="1" as="geometry">
            <mxPoint x="-730" y="-36" as="sourcePoint" />
            <mxPoint x="-570" y="-36" as="targetPoint" />
          </mxGeometry>
        </mxCell>
        <mxCell id="c3afByQmrDaTbbPtqfAJ-55" value="" style="endArrow=none;html=1;edgeStyle=orthogonalEdgeStyle;rounded=0;entryX=0.5;entryY=0;entryDx=0;entryDy=0;exitX=0.5;exitY=1.005;exitDx=0;exitDy=0;exitPerimeter=0;" edge="1" parent="WIyWlLk6GJQsqaUBKTNV-1" source="c3afByQmrDaTbbPtqfAJ-3" target="c3afByQmrDaTbbPtqfAJ-39">
          <mxGeometry relative="1" as="geometry">
            <mxPoint x="-738.4000000000001" y="108.67599999999993" as="sourcePoint" />
            <mxPoint x="-940" y="194" as="targetPoint" />
            <Array as="points" />
          </mxGeometry>
        </mxCell>
        <mxCell id="c3afByQmrDaTbbPtqfAJ-56" value="" style="endArrow=none;html=1;edgeStyle=orthogonalEdgeStyle;rounded=0;" edge="1" parent="WIyWlLk6GJQsqaUBKTNV-1">
          <mxGeometry relative="1" as="geometry">
            <mxPoint x="-660" y="2" as="sourcePoint" />
            <mxPoint x="-500" y="2" as="targetPoint" />
          </mxGeometry>
        </mxCell>
        <mxCell id="c3afByQmrDaTbbPtqfAJ-57" value="1...* BookList" style="edgeLabel;resizable=0;html=1;align=left;verticalAlign=bottom;" connectable="0" vertex="1" parent="c3afByQmrDaTbbPtqfAJ-56">
          <mxGeometry x="-1" relative="1" as="geometry" />
        </mxCell>
        <mxCell id="c3afByQmrDaTbbPtqfAJ-58" value="1...* CopyList" style="edgeLabel;resizable=0;html=1;align=right;verticalAlign=bottom;" connectable="0" vertex="1" parent="c3afByQmrDaTbbPtqfAJ-56">
          <mxGeometry x="1" relative="1" as="geometry">
            <mxPoint y="20" as="offset" />
          </mxGeometry>
        </mxCell>
        <mxCell id="c3afByQmrDaTbbPtqfAJ-59" value="" style="endArrow=none;html=1;edgeStyle=orthogonalEdgeStyle;rounded=0;entryX=0.5;entryY=0;entryDx=0;entryDy=0;exitX=0.501;exitY=1.016;exitDx=0;exitDy=0;exitPerimeter=0;" edge="1" parent="WIyWlLk6GJQsqaUBKTNV-1" source="c3afByQmrDaTbbPtqfAJ-49" target="c3afByQmrDaTbbPtqfAJ-50">
          <mxGeometry relative="1" as="geometry">
            <mxPoint x="-500" y="134" as="sourcePoint" />
            <mxPoint x="-340" y="134" as="targetPoint" />
          </mxGeometry>
        </mxCell>
        <mxCell id="c3afByQmrDaTbbPtqfAJ-60" value="" style="endArrow=block;endSize=16;endFill=0;html=1;rounded=0;exitX=0.5;exitY=0;exitDx=0;exitDy=0;entryX=0.492;entryY=1.01;entryDx=0;entryDy=0;entryPerimeter=0;" edge="1" parent="WIyWlLk6GJQsqaUBKTNV-1" source="c3afByQmrDaTbbPtqfAJ-4">
          <mxGeometry width="160" relative="1" as="geometry">
            <mxPoint x="-1010" y="-17" as="sourcePoint" />
            <mxPoint x="-801" y="-80" as="targetPoint" />
            <Array as="points">
              <mxPoint x="-1140" y="-56" />
              <mxPoint x="-801" y="-56" />
            </Array>
          </mxGeometry>
        </mxCell>
        <mxCell id="c3afByQmrDaTbbPtqfAJ-61" value="" style="endArrow=none;html=1;edgeStyle=orthogonalEdgeStyle;rounded=0;entryX=0;entryY=0.5;entryDx=0;entryDy=0;exitX=0.999;exitY=0.212;exitDx=0;exitDy=0;exitPerimeter=0;" edge="1" parent="WIyWlLk6GJQsqaUBKTNV-1" source="c3afByQmrDaTbbPtqfAJ-49" target="c3afByQmrDaTbbPtqfAJ-72">
          <mxGeometry relative="1" as="geometry">
            <mxPoint x="-240" y="20" as="sourcePoint" />
            <mxPoint x="-310" y="-80" as="targetPoint" />
            <Array as="points">
              <mxPoint x="-340" y="20" />
              <mxPoint x="-230" y="20" />
              <mxPoint x="-230" y="-72" />
            </Array>
          </mxGeometry>
        </mxCell>
        <mxCell id="c3afByQmrDaTbbPtqfAJ-62" value="1...* CopyList" style="edgeLabel;resizable=0;html=1;align=left;verticalAlign=bottom;" connectable="0" vertex="1" parent="c3afByQmrDaTbbPtqfAJ-61">
          <mxGeometry x="-1" relative="1" as="geometry">
            <mxPoint x="-2" y="-11" as="offset" />
          </mxGeometry>
        </mxCell>
        <mxCell id="c3afByQmrDaTbbPtqfAJ-63" value="1...* InventoryList" style="edgeLabel;resizable=0;html=1;align=right;verticalAlign=bottom;" connectable="0" vertex="1" parent="c3afByQmrDaTbbPtqfAJ-61">
          <mxGeometry x="1" relative="1" as="geometry">
            <mxPoint x="-10" y="-8" as="offset" />
          </mxGeometry>
        </mxCell>
        <mxCell id="c3afByQmrDaTbbPtqfAJ-64" value="" style="endArrow=none;html=1;edgeStyle=orthogonalEdgeStyle;rounded=0;entryX=0.5;entryY=0;entryDx=0;entryDy=0;exitX=0.515;exitY=1.005;exitDx=0;exitDy=0;exitPerimeter=0;" edge="1" parent="WIyWlLk6GJQsqaUBKTNV-1" source="c3afByQmrDaTbbPtqfAJ-32" target="c3afByQmrDaTbbPtqfAJ-35">
          <mxGeometry relative="1" as="geometry">
            <mxPoint x="-140" y="190" as="sourcePoint" />
            <mxPoint x="20" y="190" as="targetPoint" />
            <Array as="points">
              <mxPoint x="-60" y="160" />
            </Array>
          </mxGeometry>
        </mxCell>
        <mxCell id="c3afByQmrDaTbbPtqfAJ-65" value="1...* SectionList" style="edgeLabel;resizable=0;html=1;align=left;verticalAlign=bottom;" connectable="0" vertex="1" parent="c3afByQmrDaTbbPtqfAJ-64">
          <mxGeometry x="-1" relative="1" as="geometry">
            <mxPoint x="-82" y="20" as="offset" />
          </mxGeometry>
        </mxCell>
        <mxCell id="c3afByQmrDaTbbPtqfAJ-66" value="1...* RackList" style="edgeLabel;resizable=0;html=1;align=right;verticalAlign=bottom;" connectable="0" vertex="1" parent="c3afByQmrDaTbbPtqfAJ-64">
          <mxGeometry x="1" relative="1" as="geometry">
            <mxPoint x="70" y="-4" as="offset" />
          </mxGeometry>
        </mxCell>
        <mxCell id="c3afByQmrDaTbbPtqfAJ-67" value="&amp;lt;&amp;lt;interface&amp;gt;&amp;gt;&lt;div&gt;MainTasks&lt;/div&gt;" style="swimlane;fontStyle=3;align=center;verticalAlign=top;childLayout=stackLayout;horizontal=1;startSize=40;horizontalStack=0;resizeParent=1;resizeParentMax=0;resizeLast=0;collapsible=1;marginBottom=0;whiteSpace=wrap;html=1;" vertex="1" parent="WIyWlLk6GJQsqaUBKTNV-1">
          <mxGeometry x="180" y="-30" width="190" height="160" as="geometry" />
        </mxCell>
        <mxCell id="c3afByQmrDaTbbPtqfAJ-68" value="&lt;div&gt;+ createUser(): void&lt;/div&gt;&lt;div&gt;+ modifyUser(): void&lt;/div&gt;&lt;div&gt;+ quitUser(): void&lt;/div&gt;&lt;div&gt;+ lendBook(): void&lt;/div&gt;&lt;div&gt;+ returnBook(): void&lt;/div&gt;&lt;div&gt;+ placeBook(book: Book): void&lt;/div&gt;&lt;div&gt;+ searchBook(): void&lt;/div&gt;" style="text;strokeColor=none;fillColor=none;align=left;verticalAlign=top;spacingLeft=4;spacingRight=4;overflow=hidden;rotatable=0;points=[[0,0.5],[1,0.5]];portConstraint=eastwest;whiteSpace=wrap;html=1;" vertex="1" parent="c3afByQmrDaTbbPtqfAJ-67">
          <mxGeometry y="40" width="190" height="120" as="geometry" />
        </mxCell>
        <mxCell id="c3afByQmrDaTbbPtqfAJ-69" value="" style="endArrow=none;html=1;edgeStyle=orthogonalEdgeStyle;rounded=0;exitX=0.812;exitY=1.007;exitDx=0;exitDy=0;exitPerimeter=0;entryX=0.75;entryY=0;entryDx=0;entryDy=0;" edge="1" parent="WIyWlLk6GJQsqaUBKTNV-1" source="c3afByQmrDaTbbPtqfAJ-18" target="c3afByQmrDaTbbPtqfAJ-67">
          <mxGeometry relative="1" as="geometry">
            <mxPoint x="440" y="28.409999999999997" as="sourcePoint" />
            <mxPoint x="600" y="28.409999999999997" as="targetPoint" />
            <Array as="points">
              <mxPoint x="315" y="-30" />
            </Array>
          </mxGeometry>
        </mxCell>
        <mxCell id="c3afByQmrDaTbbPtqfAJ-70" value="" style="endArrow=none;html=1;edgeStyle=orthogonalEdgeStyle;rounded=0;exitX=1.022;exitY=0.89;exitDx=0;exitDy=0;exitPerimeter=0;" edge="1" parent="WIyWlLk6GJQsqaUBKTNV-1" source="c3afByQmrDaTbbPtqfAJ-30">
          <mxGeometry relative="1" as="geometry">
            <mxPoint x="20" y="-16" as="sourcePoint" />
            <mxPoint x="180" y="-16" as="targetPoint" />
            <Array as="points">
              <mxPoint x="40" y="-219" />
              <mxPoint x="40" y="-70" />
              <mxPoint x="170" y="-70" />
              <mxPoint x="170" y="-16" />
            </Array>
          </mxGeometry>
        </mxCell>
        <mxCell id="c3afByQmrDaTbbPtqfAJ-71" value="Inventory" style="swimlane;fontStyle=3;align=center;verticalAlign=top;childLayout=stackLayout;horizontal=1;startSize=26;horizontalStack=0;resizeParent=1;resizeParentMax=0;resizeLast=0;collapsible=1;marginBottom=0;whiteSpace=wrap;html=1;" vertex="1" parent="WIyWlLk6GJQsqaUBKTNV-1">
          <mxGeometry x="-140" y="-130" width="160" height="90" as="geometry" />
        </mxCell>
        <mxCell id="c3afByQmrDaTbbPtqfAJ-72" value="- copy: copy[ ]&amp;nbsp;" style="text;strokeColor=none;fillColor=none;align=left;verticalAlign=top;spacingLeft=4;spacingRight=4;overflow=hidden;rotatable=0;points=[[0,0.5],[1,0.5]];portConstraint=eastwest;whiteSpace=wrap;html=1;" vertex="1" parent="c3afByQmrDaTbbPtqfAJ-71">
          <mxGeometry y="26" width="160" height="64" as="geometry" />
        </mxCell>
        <mxCell id="c3afByQmrDaTbbPtqfAJ-73" value="" style="endArrow=block;dashed=1;endFill=0;endSize=12;html=1;rounded=0;entryX=0.5;entryY=0;entryDx=0;entryDy=0;exitX=0.493;exitY=0.947;exitDx=0;exitDy=0;exitPerimeter=0;" edge="1" parent="WIyWlLk6GJQsqaUBKTNV-1" source="c3afByQmrDaTbbPtqfAJ-12" target="c3afByQmrDaTbbPtqfAJ-33">
          <mxGeometry width="160" relative="1" as="geometry">
            <mxPoint x="520" y="28.5" as="sourcePoint" />
            <mxPoint x="680" y="28.5" as="targetPoint" />
          </mxGeometry>
        </mxCell>
        <mxCell id="c3afByQmrDaTbbPtqfAJ-74" value="1 Record" style="edgeLabel;resizable=0;html=1;align=right;verticalAlign=bottom;" connectable="0" vertex="1" parent="WIyWlLk6GJQsqaUBKTNV-1">
          <mxGeometry x="860" y="-90.00000000000006" as="geometry" />
        </mxCell>
        <mxCell id="c3afByQmrDaTbbPtqfAJ-75" value="1 LoanList" style="edgeLabel;resizable=0;html=1;align=left;verticalAlign=bottom;" connectable="0" vertex="1" parent="WIyWlLk6GJQsqaUBKTNV-1">
          <mxGeometry x="880" y="-20" as="geometry" />
        </mxCell>
        <mxCell id="c3afByQmrDaTbbPtqfAJ-76" value="" style="endArrow=none;html=1;edgeStyle=orthogonalEdgeStyle;rounded=0;entryX=0;entryY=0.5;entryDx=0;entryDy=0;exitX=0.998;exitY=0.325;exitDx=0;exitDy=0;exitPerimeter=0;" edge="1" parent="WIyWlLk6GJQsqaUBKTNV-1" source="c3afByQmrDaTbbPtqfAJ-49" target="c3afByQmrDaTbbPtqfAJ-34">
          <mxGeometry relative="1" as="geometry">
            <mxPoint x="-330" y="34" as="sourcePoint" />
            <mxPoint x="-130" y="-62" as="targetPoint" />
            <Array as="points">
              <mxPoint x="-330" y="31" />
              <mxPoint x="-250" y="30" />
              <mxPoint x="-250" y="360" />
              <mxPoint x="720" y="360" />
              <mxPoint x="720" y="38" />
            </Array>
          </mxGeometry>
        </mxCell>
        <mxCell id="c3afByQmrDaTbbPtqfAJ-77" value="1...* CopyList" style="edgeLabel;resizable=0;html=1;align=left;verticalAlign=bottom;" connectable="0" vertex="1" parent="c3afByQmrDaTbbPtqfAJ-76">
          <mxGeometry x="-1" relative="1" as="geometry">
            <mxPoint y="26" as="offset" />
          </mxGeometry>
        </mxCell>
        <mxCell id="c3afByQmrDaTbbPtqfAJ-78" value="1 Loan" style="edgeLabel;resizable=0;html=1;align=right;verticalAlign=bottom;" connectable="0" vertex="1" parent="c3afByQmrDaTbbPtqfAJ-76">
          <mxGeometry x="1" relative="1" as="geometry">
            <mxPoint x="-10" y="-8" as="offset" />
          </mxGeometry>
        </mxCell>
        <mxCell id="c3afByQmrDaTbbPtqfAJ-79" value="" style="endArrow=diamondThin;endFill=0;endSize=24;html=1;rounded=0;entryX=0.25;entryY=0.995;entryDx=0;entryDy=0;entryPerimeter=0;exitX=0.25;exitY=0;exitDx=0;exitDy=0;" edge="1" parent="WIyWlLk6GJQsqaUBKTNV-1" source="c3afByQmrDaTbbPtqfAJ-71" target="c3afByQmrDaTbbPtqfAJ-30">
          <mxGeometry width="160" relative="1" as="geometry">
            <mxPoint x="-250" y="-40" as="sourcePoint" />
            <mxPoint x="-90" y="-40" as="targetPoint" />
          </mxGeometry>
        </mxCell>
        <mxCell id="c3afByQmrDaTbbPtqfAJ-80" value="1 Library" style="edgeLabel;resizable=0;html=1;align=left;verticalAlign=bottom;" connectable="0" vertex="1" parent="WIyWlLk6GJQsqaUBKTNV-1">
          <mxGeometry x="-159.9999999999999" y="-183.01599999999985" as="geometry" />
        </mxCell>
        <mxCell id="c3afByQmrDaTbbPtqfAJ-81" value="1 Inventory" style="edgeLabel;resizable=0;html=1;align=right;verticalAlign=bottom;" connectable="0" vertex="1" parent="WIyWlLk6GJQsqaUBKTNV-1">
          <mxGeometry x="-29.999171488253978" y="-129.99859703600634" as="geometry" />
        </mxCell>
        <mxCell id="c3afByQmrDaTbbPtqfAJ-82" value="" style="endArrow=none;html=1;edgeStyle=orthogonalEdgeStyle;rounded=0;exitX=0.211;exitY=0.994;exitDx=0;exitDy=0;exitPerimeter=0;entryX=0.211;entryY=0.004;entryDx=0;entryDy=0;entryPerimeter=0;" edge="1" parent="WIyWlLk6GJQsqaUBKTNV-1" source="c3afByQmrDaTbbPtqfAJ-72" target="c3afByQmrDaTbbPtqfAJ-31">
          <mxGeometry relative="1" as="geometry">
            <mxPoint x="-150" y="13.569999999999993" as="sourcePoint" />
            <mxPoint x="10" y="13.569999999999993" as="targetPoint" />
          </mxGeometry>
        </mxCell>
        <mxCell id="c3afByQmrDaTbbPtqfAJ-83" value="1 Inventory" style="edgeLabel;resizable=0;html=1;align=left;verticalAlign=bottom;" connectable="0" vertex="1" parent="c3afByQmrDaTbbPtqfAJ-82">
          <mxGeometry x="-1" relative="1" as="geometry">
            <mxPoint x="-64" y="20" as="offset" />
          </mxGeometry>
        </mxCell>
        <mxCell id="c3afByQmrDaTbbPtqfAJ-84" value="1 Section" style="edgeLabel;resizable=0;html=1;align=right;verticalAlign=bottom;" connectable="0" vertex="1" parent="c3afByQmrDaTbbPtqfAJ-82">
          <mxGeometry x="1" relative="1" as="geometry">
            <mxPoint x="56" as="offset" />
          </mxGeometry>
        </mxCell>
      </root>
    </mxGraphModel>
  </diagram>
</mxfile>
